<?xml version="1.0" encoding="UTF-8" standalone="no"?>
<svg
   width="1220"
   height="1080"
   version="1.1"
   id="svg1529"
   sodipodi:docname="nostracity.svg"
   inkscape:version="1.1.1 (3bf5ae0d25, 2021-09-20)"
   xmlns:inkscape="http://www.inkscape.org/namespaces/inkscape"
   xmlns:sodipodi="http://sodipodi.sourceforge.net/DTD/sodipodi-0.dtd"
   xmlns="http://www.w3.org/2000/svg"
   xmlns:svg="http://www.w3.org/2000/svg">
  <defs
     id="defs1533" />
  <sodipodi:namedview
     id="namedview1531"
     pagecolor="#ffffff"
     bordercolor="#666666"
     borderopacity="1.0"
     inkscape:pageshadow="2"
     inkscape:pageopacity="0.0"
     inkscape:pagecheckerboard="0"
     showgrid="false"
     inkscape:zoom="0.30464496"
     inkscape:cx="457.91008"
     inkscape:cy="530.12529"
     inkscape:window-width="1366"
     inkscape:window-height="697"
     inkscape:window-x="-8"
     inkscape:window-y="-8"
     inkscape:window-maximized="1"
     inkscape:current-layer="layer2"
     width="1820px" />
  <style
     id="style2"><![CDATA[@import url("https://fonts.googleapis.com/css?family=IM+Fell+Great+Primer");]]></style>
  <rect
     x="3.9768186"
     y="6.0400186"
     width="1213.384"
     height="1081.5586"
     id="background"
     fill="#484848"
     style="stroke-width:11.222" />
  <g
     id="compass"
     transform="matrix(0.139,0,0,0.139,82.688,96.957)">
    <circle
       cx="0"
       cy="0"
       r="13.78"
       stroke="#1a1917"
       stroke-width="1.6"
       fill="none"
       id="circle1488" />
    <polygon
       points="0,0 33.948,33.948 0,11.368 "
       fill="#1a1917"
       id="polygon1490" />
    <polygon
       points="0,0 0,11.368 -33.948,33.948 "
       fill="#99948a"
       id="polygon1492" />
    <polygon
       points="0,0 -33.948,33.948 -11.368,0 "
       fill="#1a1917"
       id="polygon1494" />
    <polygon
       points="0,0 -11.368,0 -33.948,-33.948 "
       fill="#99948a"
       id="polygon1496" />
    <polygon
       points="0,0 -33.948,-33.948 0,-11.368 "
       fill="#1a1917"
       id="polygon1498" />
    <polygon
       points="0,0 0,-11.368 33.948,-33.948 "
       fill="#99948a"
       id="polygon1500" />
    <polygon
       points="0,0 33.948,-33.948 11.368,0 "
       fill="#1a1917"
       id="polygon1502" />
    <polygon
       points="0,0 11.368,0 33.948,33.948 "
       fill="#99948a"
       id="polygon1504" />
    <polygon
       points="33.948,33.948 0,11.368 -33.948,33.948 -11.368,0 -33.948,-33.948 0,-11.368 33.948,-33.948 11.368,0 "
       fill="none"
       stroke="#1a1917"
       stroke-width="1.6"
       stroke-linejoin="round"
       id="polygon1506" />
    <polygon
       points="0,0 80,0 8.6,8.6 "
       fill="#1a1917"
       id="polygon1508" />
    <polygon
       points="0,0 8.6,8.6 0,80 "
       fill="#99948a"
       id="polygon1510" />
    <polygon
       points="0,0 0,80 -8.6,8.6 "
       fill="#1a1917"
       id="polygon1512" />
    <polygon
       points="0,0 -8.6,8.6 -80,0 "
       fill="#99948a"
       id="polygon1514" />
    <polygon
       points="0,0 -80,0 -8.6,-8.6 "
       fill="#1a1917"
       id="polygon1516" />
    <polygon
       points="0,0 -8.6,-8.6 0,-80 "
       fill="#99948a"
       id="polygon1518" />
    <polygon
       points="0,0 0,-80 8.6,-8.6 "
       fill="#1a1917"
       id="polygon1520" />
    <polygon
       points="0,0 8.6,-8.6 80,0 "
       fill="#99948a"
       id="polygon1522" />
    <polygon
       points="80,0 8.6,8.6 0,80 -8.6,8.6 -80,0 -8.6,-8.6 0,-80 8.6,-8.6 "
       fill="none"
       stroke="#1a1917"
       stroke-width="1.6"
       stroke-linejoin="round"
       id="polygon1524" />
    <text
       text-anchor="middle"
       dominant-baseline="baseline"
       style="font-style:normal;font-variant:normal;font-weight:normal;font-stretch:normal;font-size:27px;line-height:normal;font-family:'IM Fell Great Primer', serif"
       fill="#1a1917"
       x="0"
       y="-85.400002"
       id="text1526">N</text>
  </g>
  <g
     inkscape:groupmode="layer"
     id="layer1"
     inkscape:label="Layer 1"
     sodipodi:insensitive="true" />
  <g
     inkscape:groupmode="layer"
     id="layer2"
     inkscape:label="Layer 2">
    <g
       id="compass-0"
       transform="matrix(0.88295213,0,0,0.88295213,1135.753,996.34698)">
      <circle
         cx="0"
         cy="0"
         r="13.78"
         stroke="#1a1917"
         stroke-width="1.6"
         fill="none"
         id="circle1488-1" />
      <polygon
         points="0,11.368 0,0 33.948,33.948 "
         fill="#1a1917"
         id="polygon1490-3" />
      <polygon
         points="-33.948,33.948 0,0 0,11.368 "
         fill="#99948a"
         id="polygon1492-8" />
      <polygon
         points="-11.368,0 0,0 -33.948,33.948 "
         fill="#1a1917"
         id="polygon1494-2" />
      <polygon
         points="-33.948,-33.948 0,0 -11.368,0 "
         fill="#99948a"
         id="polygon1496-5" />
      <polygon
         points="0,-11.368 0,0 -33.948,-33.948 "
         fill="#1a1917"
         id="polygon1498-1" />
      <polygon
         points="33.948,-33.948 0,0 0,-11.368 "
         fill="#99948a"
         id="polygon1500-5" />
      <polygon
         points="11.368,0 0,0 33.948,-33.948 "
         fill="#1a1917"
         id="polygon1502-8" />
      <polygon
         points="33.948,33.948 0,0 11.368,0 "
         fill="#99948a"
         id="polygon1504-0" />
      <polygon
         points="33.948,33.948 0,11.368 -33.948,33.948 -11.368,0 -33.948,-33.948 0,-11.368 33.948,-33.948 11.368,0 "
         fill="none"
         stroke="#1a1917"
         stroke-width="1.6"
         stroke-linejoin="round"
         id="polygon1506-8" />
      <polygon
         points="8.6,8.6 0,0 80,0 "
         fill="#1a1917"
         id="polygon1508-5" />
      <polygon
         points="0,80 0,0 8.6,8.6 "
         fill="#99948a"
         id="polygon1510-7" />
      <polygon
         points="-8.6,8.6 0,0 0,80 "
         fill="#1a1917"
         id="polygon1512-4" />
      <polygon
         points="-80,0 0,0 -8.6,8.6 "
         fill="#99948a"
         id="polygon1514-5" />
      <polygon
         points="-8.6,-8.6 0,0 -80,0 "
         fill="#1a1917"
         id="polygon1516-0" />
      <polygon
         points="0,-80 0,0 -8.6,-8.6 "
         fill="#99948a"
         id="polygon1518-7" />
      <polygon
         points="8.6,-8.6 0,0 0,-80 "
         fill="#1a1917"
         id="polygon1520-6" />
      <polygon
         points="80,0 0,0 8.6,-8.6 "
         fill="#99948a"
         id="polygon1522-3" />
      <polygon
         points="80,0 8.6,8.6 0,80 -8.6,8.6 -80,0 -8.6,-8.6 0,-80 8.6,-8.6 "
         fill="none"
         stroke="#1a1917"
         stroke-width="1.6"
         stroke-linejoin="round"
         id="polygon1524-9" />
      <text
         text-anchor="middle"
         dominant-baseline="baseline"
         style="font-style:normal;font-variant:normal;font-weight:normal;font-stretch:normal;font-size:27px;line-height:normal;font-family:'IM Fell Great Primer', serif"
         fill="#1a1917"
         x="0"
         y="-85.400002"
         id="text1526-0">N</text>
    </g>
    <g
       id="map"
       transform="matrix(8.738224,0.29874737,-0.29874737,8.738224,886.00086,320.03657)">
      <polygon
         points="2.172,-8.152 3.203,-2.612 3.217,-2.35 2.865,2.135 2.373,2.92 1.381,3.5 0.456,3.544 -3.558,1.682 -3.831,1.496 -7.684,-2.212 -7.515,-3.785 0.664,-8.82 "
         fill="#ccc5b8"
         id="polygon5" />
      <g
         fill="none"
         id="g11">
        <polyline
           points="16.375,6.479 22.317,18.165 27.299,36.537 32.146,39.512 34.737,40.894 36.688,41.676 38.537,42.187 40.284,42.429 42.11,42.51 44.013,42.432 45.994,42.193 48.052,41.795 50.11,41.574 52.168,41.531 54.225,41.666 56.281,41.978 58.336,42.468 60.391,43.135 62.445,43.98 64.498,45.003 66.439,46.256 68.267,47.738 69.983,49.45 71.586,51.391 73.077,53.562 74.455,55.963 75.72,58.594 76.873,61.454 78.211,64.007 79.733,66.252 81.439,68.189 83.33,69.819 85.733,71.192 88.65,72.307 93.065,73.314 101.937,74.663"
           stroke="#67635c"
           stroke-width="2.223"
           stroke-linejoin="round"
           stroke-linecap="butt"
           id="polyline7" />
        <polyline
           points="3.887,3.322 16.375,6.479 22.317,18.165 27.299,36.537 32.146,39.512 34.737,40.894 36.688,41.676 38.537,42.187 40.284,42.429 42.11,42.51 44.013,42.432 45.994,42.193 48.052,41.795 50.11,41.574 52.168,41.531 54.225,41.666 56.281,41.978 58.336,42.468 60.391,43.135 62.445,43.98 64.498,45.003 66.439,46.256 68.267,47.738 69.983,49.45 71.586,51.391 73.077,53.562 74.455,55.963 75.72,58.594 76.873,61.454 78.211,64.007 79.733,66.252 81.439,68.189 83.33,69.819 85.733,71.192 88.65,72.307 93.065,73.314 101.937,74.663"
           stroke="#ccc5b8"
           stroke-width="1.777"
           stroke-linejoin="round"
           stroke-linecap="round"
           id="polyline9" />
      </g>
      <g
         fill="none"
         id="g17">
        <polyline
           points="-6.952,15.836 -17.684,14.175 -28.091,4.603 -34.175,4.653 -37.296,4.896 -39.481,5.347 -41.407,6.014 -43.073,6.894 -44.704,7.992 -46.302,9.306 -47.865,10.836 -49.394,12.583 -51.037,14.202 -52.795,15.694 -54.667,17.058 -56.654,18.294 -58.755,19.402 -60.97,20.383 -63.3,21.236 -65.745,21.961 -68.189,22.808 -70.632,23.777 -73.074,24.867 -75.515,26.08 -77.956,27.414 -80.396,28.869 -82.835,30.447 -85.273,32.146 -87.397,33.953 -89.206,35.867 -90.7,37.889 -91.879,40.018 -92.743,42.255 -93.293,44.6 -93.528,47.053 -93.448,49.612 -93.804,52.41 -94.597,55.444 -95.826,58.716 -97.491,62.226 -100.019,66.53 -103.41,71.628 -108.942,79.194 -120.453,94.241"
           stroke="#67635c"
           stroke-width="2.223"
           stroke-linejoin="round"
           stroke-linecap="butt"
           id="polyline13" />
        <polyline
           points="0.989,5.017 -6.952,15.836 -17.684,14.175 -28.091,4.603 -34.175,4.653 -37.296,4.896 -39.481,5.347 -41.407,6.014 -43.073,6.894 -44.704,7.992 -46.302,9.306 -47.865,10.836 -49.394,12.583 -51.037,14.202 -52.795,15.694 -54.667,17.058 -56.654,18.294 -58.755,19.402 -60.97,20.383 -63.3,21.236 -65.745,21.961 -68.189,22.808 -70.632,23.777 -73.074,24.867 -75.515,26.08 -77.956,27.414 -80.396,28.869 -82.835,30.447 -85.273,32.146 -87.397,33.953 -89.206,35.867 -90.7,37.889 -91.879,40.018 -92.743,42.255 -93.293,44.6 -93.528,47.053 -93.448,49.612 -93.804,52.41 -94.597,55.444 -95.826,58.716 -97.491,62.226 -100.019,66.53 -103.41,71.628 -108.942,79.194 -120.453,94.241"
           stroke="#ccc5b8"
           stroke-width="1.777"
           stroke-linejoin="round"
           stroke-linecap="round"
           id="polyline15" />
      </g>
      <g
         fill="none"
         id="g51">
        <polyline
           points="-113.717,26.402 -114.065,22.773 -114.246,20.891 -114.375,19.547 -114.492,18.337 -114.595,17.262 -114.698,16.186 -114.802,15.111 -114.905,14.036 -115.008,12.96 -115.002,11.901 -114.886,10.858 -114.66,9.83 -114.325,8.819 -113.879,7.824 -113.325,6.845 -112.66,5.882 -111.886,4.935 -111.111,3.987 -110.337,3.04 -109.562,2.093 -108.788,1.146 -108.014,0.199 -107.239,-0.748 -106.465,-1.695 -105.691,-2.643 -104.904,-3.568 -104.106,-4.473 -103.297,-5.356 -102.475,-6.218 -101.641,-7.058 -100.796,-7.877 -99.939,-8.674 -99.07,-9.451 -98.201,-10.227 -97.332,-11.003 -96.463,-11.779 -95.594,-12.556 -94.725,-13.332 -93.856,-14.108 -92.987,-14.884 -92.118,-15.661 -91.238,-16.416 -90.345,-17.149 -89.441,-17.861 -88.524,-18.552 -87.596,-19.222 -86.656,-19.87 -85.705,-20.496 -84.741,-21.102 -83.777,-21.707 -82.814,-22.312 -81.85,-22.918 -80.887,-23.523 -79.923,-24.129 -78.96,-24.734 -77.996,-25.339 -77.032,-25.945 -76.145,-26.533 -75.333,-27.104 -74.596,-27.657 -73.936,-28.193 -73.351,-28.712 -72.843,-29.214 -72.41,-29.698 -72.052,-30.165 -71.695,-30.632 -71.338,-31.099 -70.981,-31.566 -70.624,-32.033 -70.266,-32.5 -69.909,-32.967 -69.552,-33.434 -69.195,-33.901 -68.814,-34.331 -68.409,-34.723 -67.98,-35.077 -67.527,-35.393 -67.05,-35.672 -66.55,-35.913 -66.025,-36.117 -65.477,-36.283 -64.928,-36.448 -64.38,-36.614 -63.832,-36.78 -63.283,-36.946 -62.735,-37.112 -62.187,-37.278 -61.638,-37.444 -61.09,-37.61 -60.518,-37.738 -59.922,-37.828 -59.302,-37.881 -58.658,-37.897 -57.99,-37.874 -57.298,-37.814 -56.583,-37.717 -55.843,-37.581 -55.104,-37.446 -54.364,-37.311 -53.625,-37.175 -52.885,-37.04 -52.146,-36.905 -51.406,-36.769 -50.667,-36.634 -49.927,-36.499 -49.199,-36.338 -48.483,-36.151 -47.778,-35.939 -47.085,-35.701 -46.403,-35.438 -45.733,-35.149 -45.075,-34.834 -44.428,-34.494 -43.781,-34.153 -43.135,-33.813 -42.488,-33.473 -41.841,-33.132 -41.194,-32.792 -40.547,-32.452 -39.9,-32.111 -39.254,-31.771 -38.62,-31.431 -38,-31.091 -37.394,-30.751 -36.8,-30.41 -36.22,-30.07 -35.654,-29.731 -35.101,-29.391 -34.561,-29.051 -34.021,-28.711 -33.481,-28.371 -32.942,-28.031 -32.402,-27.692 -31.862,-27.352 -31.322,-27.012 -30.783,-26.672 -30.243,-26.332 -29.733,-25.987 -29.253,-25.637 -28.804,-25.281 -28.384,-24.92 -27.995,-24.553 -27.635,-24.181 -27.306,-23.803 -27.006,-23.421 -26.707,-23.038 -26.408,-22.655 -26.108,-22.272 -25.809,-21.89 -25.509,-21.507 -25.21,-21.124 -24.911,-20.741 -24.611,-20.359 -24.328,-19.97 -24.062,-19.577 -23.813,-19.178 -23.58,-18.773 -23.364,-18.363 -23.165,-17.948 -22.982,-17.527 -22.816,-17.101 -22.65,-16.675 -22.483,-16.248 -22.317,-15.822 -22.151,-15.396 -21.985,-14.97 -21.819,-14.543 -21.653,-14.117 -21.487,-13.691 -21.323,-13.277 -21.16,-12.877 -21,-12.489 -20.842,-12.114 -20.685,-11.753 -20.53,-11.404 -20.378,-11.067 -20.227,-10.744 -20.076,-10.421 -19.925,-10.098 -19.774,-9.774 -19.624,-9.451 -19.454,-9.087 -19.265,-8.683 -19.001,-8.118 -18.493,-7.027 -17.585,-6.43 -17.115,-6.121 -16.779,-5.9 -16.477,-5.701 -16.208,-5.524 -15.939,-5.347 -15.67,-5.17 -15.401,-4.994 -15.133,-4.817 -14.856,-4.643 -14.57,-4.473 -14.277,-4.306 -13.976,-4.142 -13.666,-3.982 -13.348,-3.825 -13.023,-3.671 -12.689,-3.521 -12.354,-3.37 -12.02,-3.22 -11.686,-3.069 -11.352,-2.919 -11.018,-2.768 -10.684,-2.618 -10.35,-2.467 -10.016,-2.317 -9.689,-2.151 -9.368,-1.971 -9.054,-1.775 -8.746,-1.564 -8.445,-1.339 -8.15,-1.098 -7.862,-0.842 -7.581,-0.572 -7.3,-0.301 -7.019,-0.03 -6.737,0.24 -6.456,0.511 -6.139,0.816 -5.788,1.154 -5.296,1.628 -4.346,2.541 -3.221,3.063 -2.637,3.334 -2.22,3.528 -1.845,3.702 -1.512,3.856 -1.137,4.03 -0.72,4.224 -0.136,4.494 0.989,5.017 1.6,4.659 1.917,4.474 2.144,4.342 2.347,4.222 2.528,4.117 2.732,3.997 2.959,3.865 3.275,3.68 3.887,3.322 3.984,2.086 4.034,1.444 4.07,0.986 4.102,0.574 4.131,0.207 4.16,-0.159 4.188,-0.526 4.217,-0.892 4.246,-1.259 4.261,-1.631 4.263,-2.009 4.253,-2.393 4.228,-2.783 4.191,-3.179 4.141,-3.58 4.077,-3.988 4,-4.401 3.923,-4.815 3.846,-5.228 3.769,-5.641 3.692,-6.055 3.615,-6.468 3.538,-6.881 3.461,-7.295 3.384,-7.708 3.34,-8.093 3.327,-8.449 3.347,-8.777 3.399,-9.077 3.483,-9.348 3.6,-9.59 3.748,-9.804 3.929,-9.99 4.11,-10.175 4.291,-10.361 4.472,-10.546 4.653,-10.732 4.834,-10.917 5.015,-11.103 5.196,-11.289 5.377,-11.474 5.59,-11.631 5.836,-11.76 6.114,-11.86 6.423,-11.932 6.766,-11.975 7.14,-11.99 7.547,-11.976 7.986,-11.934 8.425,-11.892 8.863,-11.849 9.302,-11.807 9.741,-11.765 10.18,-11.723 10.619,-11.681 11.058,-11.638 11.497,-11.596 11.94,-11.54 12.388,-11.47 12.841,-11.386 13.298,-11.288 13.76,-11.176 14.227,-11.05 14.698,-10.91 15.173,-10.756 15.649,-10.602 16.124,-10.448 16.6,-10.294 17.076,-10.14 17.551,-9.986 18.027,-9.832 18.502,-9.678 18.978,-9.525 19.445,-9.388 19.903,-9.269 20.353,-9.167 20.793,-9.082 21.225,-9.015 21.649,-8.965 22.063,-8.932 22.469,-8.916 22.875,-8.901 23.281,-8.885 23.687,-8.87 24.093,-8.855 24.499,-8.839 24.905,-8.824 25.311,-8.808 25.717,-8.793 26.133,-8.803 26.557,-8.84 26.991,-8.903 27.434,-8.992 27.886,-9.108 28.347,-9.249 28.818,-9.417 29.298,-9.611 29.778,-9.804 30.258,-9.998 30.737,-10.192 31.217,-10.385 31.697,-10.579 32.177,-10.773 32.657,-10.967 33.137,-11.16 33.635,-11.363 34.15,-11.574 34.684,-11.795 35.236,-12.024 35.805,-12.262 36.393,-12.508 36.998,-12.764 37.621,-13.028 38.245,-13.293 38.868,-13.557 39.492,-13.822 40.115,-14.086 40.738,-14.35 41.362,-14.615 41.985,-14.879 42.608,-15.144 43.253,-15.427 43.92,-15.728 44.608,-16.048 45.318,-16.387 46.05,-16.744 46.803,-17.12 47.578,-17.514 48.374,-17.927 49.17,-18.34 49.967,-18.753 50.763,-19.165 51.56,-19.578 52.356,-19.991 53.153,-20.404 53.949,-20.817 54.745,-21.23 55.546,-21.652 56.349,-22.084 57.157,-22.526 57.968,-22.978 58.783,-23.44 59.602,-23.911 60.424,-24.392 61.25,-24.882 62.076,-25.373 62.902,-25.863 63.728,-26.354 64.554,-26.845 65.38,-27.335 66.206,-27.826 67.032,-28.316 67.858,-28.807 68.684,-29.248 69.511,-29.639 70.339,-29.981 71.167,-30.273 71.995,-30.515 72.824,-30.707 73.653,-30.85 74.483,-30.944 75.313,-31.037 76.143,-31.13 76.973,-31.223 77.803,-31.317 78.633,-31.41 79.462,-31.503 80.292,-31.596 81.122,-31.69 81.949,-31.724 82.772,-31.698 83.593,-31.613 84.41,-31.469 85.223,-31.265 86.034,-31.002 86.841,-30.68 87.646,-30.298 88.45,-29.916 89.254,-29.535 90.058,-29.153 90.862,-28.771 91.667,-28.389 92.471,-28.007 93.275,-27.626 94.079,-27.244 94.88,-26.803 95.678,-26.302 96.473,-25.742 97.264,-25.123 98.052,-24.444 98.837,-23.706 99.619,-22.909 100.397,-22.052 101.176,-21.195 101.954,-20.338 102.733,-19.481 103.511,-18.624 104.29,-17.768 105.068,-16.911 105.847,-16.054 106.625,-15.197 107.553,-14.503 108.629,-13.971 109.855,-13.602 111.23,-13.395 112.754,-13.35 114.427,-13.469 116.249,-13.749 118.22,-14.193 120.191,-14.636 122.163,-15.079 124.134,-15.522 126.105,-15.966 128.323,-16.464 130.786,-17.018 134.236,-17.794 140.889,-19.29"
           stroke="#1a1917"
           stroke-width="4.222"
           stroke-linejoin="round"
           stroke-linecap="butt"
           id="polyline19" />
        <polyline
           points="-113.717,26.402 -114.065,22.773 -114.246,20.891 -114.375,19.547 -114.492,18.337 -114.595,17.262 -114.698,16.186 -114.802,15.111 -114.905,14.036 -115.008,12.96 -115.002,11.901 -114.886,10.858 -114.66,9.83 -114.325,8.819 -113.879,7.824 -113.325,6.845 -112.66,5.882 -111.886,4.935 -111.111,3.987 -110.337,3.04 -109.562,2.093 -108.788,1.146 -108.014,0.199 -107.239,-0.748 -106.465,-1.695 -105.691,-2.643 -104.904,-3.568 -104.106,-4.473 -103.297,-5.356 -102.475,-6.218 -101.641,-7.058 -100.796,-7.877 -99.939,-8.674 -99.07,-9.451 -98.201,-10.227 -97.332,-11.003 -96.463,-11.779 -95.594,-12.556 -94.725,-13.332 -93.856,-14.108 -92.987,-14.884 -92.118,-15.661 -91.238,-16.416 -90.345,-17.149 -89.441,-17.861 -88.524,-18.552 -87.596,-19.222 -86.656,-19.87 -85.705,-20.496 -84.741,-21.102 -83.777,-21.707 -82.814,-22.312 -81.85,-22.918 -80.887,-23.523 -79.923,-24.129 -78.96,-24.734 -77.996,-25.339 -77.032,-25.945 -76.145,-26.533 -75.333,-27.104 -74.596,-27.657 -73.936,-28.193 -73.351,-28.712 -72.843,-29.214 -72.41,-29.698 -72.052,-30.165 -71.695,-30.632 -71.338,-31.099 -70.981,-31.566 -70.624,-32.033 -70.266,-32.5 -69.909,-32.967 -69.552,-33.434 -69.195,-33.901 -68.814,-34.331 -68.409,-34.723 -67.98,-35.077 -67.527,-35.393 -67.05,-35.672 -66.55,-35.913 -66.025,-36.117 -65.477,-36.283 -64.928,-36.448 -64.38,-36.614 -63.832,-36.78 -63.283,-36.946 -62.735,-37.112 -62.187,-37.278 -61.638,-37.444 -61.09,-37.61 -60.518,-37.738 -59.922,-37.828 -59.302,-37.881 -58.658,-37.897 -57.99,-37.874 -57.298,-37.814 -56.583,-37.717 -55.843,-37.581 -55.104,-37.446 -54.364,-37.311 -53.625,-37.175 -52.885,-37.04 -52.146,-36.905 -51.406,-36.769 -50.667,-36.634 -49.927,-36.499 -49.199,-36.338 -48.483,-36.151 -47.778,-35.939 -47.085,-35.701 -46.403,-35.438 -45.733,-35.149 -45.075,-34.834 -44.428,-34.494 -43.781,-34.153 -43.135,-33.813 -42.488,-33.473 -41.841,-33.132 -41.194,-32.792 -40.547,-32.452 -39.9,-32.111 -39.254,-31.771 -38.62,-31.431 -38,-31.091 -37.394,-30.751 -36.8,-30.41 -36.22,-30.07 -35.654,-29.731 -35.101,-29.391 -34.561,-29.051 -34.021,-28.711 -33.481,-28.371 -32.942,-28.031 -32.402,-27.692 -31.862,-27.352 -31.322,-27.012 -30.783,-26.672 -30.243,-26.332 -29.733,-25.987 -29.253,-25.637 -28.804,-25.281 -28.384,-24.92 -27.995,-24.553 -27.635,-24.181 -27.306,-23.803 -27.006,-23.421 -26.707,-23.038 -26.408,-22.655 -26.108,-22.272 -25.809,-21.89 -25.509,-21.507 -25.21,-21.124 -24.911,-20.741 -24.611,-20.359 -24.328,-19.97 -24.062,-19.577 -23.813,-19.178 -23.58,-18.773 -23.364,-18.363 -23.165,-17.948 -22.982,-17.527 -22.816,-17.101 -22.65,-16.675 -22.483,-16.248 -22.317,-15.822 -22.151,-15.396 -21.985,-14.97 -21.819,-14.543 -21.653,-14.117 -21.487,-13.691 -21.323,-13.277 -21.16,-12.877 -21,-12.489 -20.842,-12.114 -20.685,-11.753 -20.53,-11.404 -20.378,-11.067 -20.227,-10.744 -20.076,-10.421 -19.925,-10.098 -19.774,-9.774 -19.624,-9.451 -19.454,-9.087 -19.265,-8.683 -19.001,-8.118 -18.493,-7.027 -17.585,-6.43 -17.115,-6.121 -16.779,-5.9 -16.477,-5.701 -16.208,-5.524 -15.939,-5.347 -15.67,-5.17 -15.401,-4.994 -15.133,-4.817 -14.856,-4.643 -14.57,-4.473 -14.277,-4.306 -13.976,-4.142 -13.666,-3.982 -13.348,-3.825 -13.023,-3.671 -12.689,-3.521 -12.354,-3.37 -12.02,-3.22 -11.686,-3.069 -11.352,-2.919 -11.018,-2.768 -10.684,-2.618 -10.35,-2.467 -10.016,-2.317 -9.689,-2.151 -9.368,-1.971 -9.054,-1.775 -8.746,-1.564 -8.445,-1.339 -8.15,-1.098 -7.862,-0.842 -7.581,-0.572 -7.3,-0.301 -7.019,-0.03 -6.737,0.24 -6.456,0.511 -6.139,0.816 -5.788,1.154 -5.296,1.628 -4.346,2.541 -3.221,3.063 -2.637,3.334 -2.22,3.528 -1.845,3.702 -1.512,3.856 -1.137,4.03 -0.72,4.224 -0.136,4.494 0.989,5.017 1.6,4.659 1.917,4.474 2.144,4.342 2.347,4.222 2.528,4.117 2.732,3.997 2.959,3.865 3.275,3.68 3.887,3.322 3.984,2.086 4.034,1.444 4.07,0.986 4.102,0.574 4.131,0.207 4.16,-0.159 4.188,-0.526 4.217,-0.892 4.246,-1.259 4.261,-1.631 4.263,-2.009 4.253,-2.393 4.228,-2.783 4.191,-3.179 4.141,-3.58 4.077,-3.988 4,-4.401 3.923,-4.815 3.846,-5.228 3.769,-5.641 3.692,-6.055 3.615,-6.468 3.538,-6.881 3.461,-7.295 3.384,-7.708 3.34,-8.093 3.327,-8.449 3.347,-8.777 3.399,-9.077 3.483,-9.348 3.6,-9.59 3.748,-9.804 3.929,-9.99 4.11,-10.175 4.291,-10.361 4.472,-10.546 4.653,-10.732 4.834,-10.917 5.015,-11.103 5.196,-11.289 5.377,-11.474 5.59,-11.631 5.836,-11.76 6.114,-11.86 6.423,-11.932 6.766,-11.975 7.14,-11.99 7.547,-11.976 7.986,-11.934 8.425,-11.892 8.863,-11.849 9.302,-11.807 9.741,-11.765 10.18,-11.723 10.619,-11.681 11.058,-11.638 11.497,-11.596 11.94,-11.54 12.388,-11.47 12.841,-11.386 13.298,-11.288 13.76,-11.176 14.227,-11.05 14.698,-10.91 15.173,-10.756 15.649,-10.602 16.124,-10.448 16.6,-10.294 17.076,-10.14 17.551,-9.986 18.027,-9.832 18.502,-9.678 18.978,-9.525 19.445,-9.388 19.903,-9.269 20.353,-9.167 20.793,-9.082 21.225,-9.015 21.649,-8.965 22.063,-8.932 22.469,-8.916 22.875,-8.901 23.281,-8.885 23.687,-8.87 24.093,-8.855 24.499,-8.839 24.905,-8.824 25.311,-8.808 25.717,-8.793 26.133,-8.803 26.557,-8.84 26.991,-8.903 27.434,-8.992 27.886,-9.108 28.347,-9.249 28.818,-9.417 29.298,-9.611 29.778,-9.804 30.258,-9.998 30.737,-10.192 31.217,-10.385 31.697,-10.579 32.177,-10.773 32.657,-10.967 33.137,-11.16 33.635,-11.363 34.15,-11.574 34.684,-11.795 35.236,-12.024 35.805,-12.262 36.393,-12.508 36.998,-12.764 37.621,-13.028 38.245,-13.293 38.868,-13.557 39.492,-13.822 40.115,-14.086 40.738,-14.35 41.362,-14.615 41.985,-14.879 42.608,-15.144 43.253,-15.427 43.92,-15.728 44.608,-16.048 45.318,-16.387 46.05,-16.744 46.803,-17.12 47.578,-17.514 48.374,-17.927 49.17,-18.34 49.967,-18.753 50.763,-19.165 51.56,-19.578 52.356,-19.991 53.153,-20.404 53.949,-20.817 54.745,-21.23 55.546,-21.652 56.349,-22.084 57.157,-22.526 57.968,-22.978 58.783,-23.44 59.602,-23.911 60.424,-24.392 61.25,-24.882 62.076,-25.373 62.902,-25.863 63.728,-26.354 64.554,-26.845 65.38,-27.335 66.206,-27.826 67.032,-28.316 67.858,-28.807 68.684,-29.248 69.511,-29.639 70.339,-29.981 71.167,-30.273 71.995,-30.515 72.824,-30.707 73.653,-30.85 74.483,-30.944 75.313,-31.037 76.143,-31.13 76.973,-31.223 77.803,-31.317 78.633,-31.41 79.462,-31.503 80.292,-31.596 81.122,-31.69 81.949,-31.724 82.772,-31.698 83.593,-31.613 84.41,-31.469 85.223,-31.265 86.034,-31.002 86.841,-30.68 87.646,-30.298 88.45,-29.916 89.254,-29.535 90.058,-29.153 90.862,-28.771 91.667,-28.389 92.471,-28.007 93.275,-27.626 94.079,-27.244 94.88,-26.803 95.678,-26.302 96.473,-25.742 97.264,-25.123 98.052,-24.444 98.837,-23.706 99.619,-22.909 100.397,-22.052 101.176,-21.195 101.954,-20.338 102.733,-19.481 103.511,-18.624 104.29,-17.768 105.068,-16.911 105.847,-16.054 106.625,-15.197 107.553,-14.503 108.629,-13.971 109.855,-13.602 111.23,-13.395 112.754,-13.35 114.427,-13.469 116.249,-13.749 118.22,-14.193 120.191,-14.636 122.163,-15.079 124.134,-15.522 126.105,-15.966 128.323,-16.464 130.786,-17.018 134.236,-17.794 140.889,-19.29"
           stroke="#67635c"
           stroke-width="3.776"
           stroke-linejoin="round"
           stroke-linecap="round"
           id="polyline21" />
        <polyline
           points="-113.717,26.402 -114.065,22.773 -114.246,20.891 -114.375,19.547 -114.492,18.337 -114.595,17.262 -114.698,16.186 -114.802,15.111 -114.905,14.036 -115.008,12.96 -115.002,11.901 -114.886,10.858 -114.66,9.83 -114.325,8.819 -113.879,7.824 -113.325,6.845 -112.66,5.882 -111.886,4.935 -111.111,3.987 -110.337,3.04 -109.562,2.093 -108.788,1.146 -108.014,0.199 -107.239,-0.748 -106.465,-1.695 -105.691,-2.643 -104.904,-3.568 -104.106,-4.473 -103.297,-5.356 -102.475,-6.218 -101.641,-7.058 -100.796,-7.877 -99.939,-8.674 -99.07,-9.451 -98.201,-10.227 -97.332,-11.003 -96.463,-11.779 -95.594,-12.556 -94.725,-13.332 -93.856,-14.108 -92.987,-14.884 -92.118,-15.661 -91.238,-16.416 -90.345,-17.149 -89.441,-17.861 -88.524,-18.552 -87.596,-19.222 -86.656,-19.87 -85.705,-20.496 -84.741,-21.102 -83.777,-21.707 -82.814,-22.312 -81.85,-22.918 -80.887,-23.523 -79.923,-24.129 -78.96,-24.734 -77.996,-25.339 -77.032,-25.945 -76.145,-26.533 -75.333,-27.104 -74.596,-27.657 -73.936,-28.193 -73.351,-28.712 -72.843,-29.214 -72.41,-29.698 -72.052,-30.165 -71.695,-30.632 -71.338,-31.099 -70.981,-31.566 -70.624,-32.033 -70.266,-32.5 -69.909,-32.967 -69.552,-33.434 -69.195,-33.901 -68.814,-34.331 -68.409,-34.723 -67.98,-35.077 -67.527,-35.393 -67.05,-35.672 -66.55,-35.913 -66.025,-36.117 -65.477,-36.283 -64.928,-36.448 -64.38,-36.614 -63.832,-36.78 -63.283,-36.946 -62.735,-37.112 -62.187,-37.278 -61.638,-37.444 -61.09,-37.61 -60.518,-37.738 -59.922,-37.828 -59.302,-37.881 -58.658,-37.897 -57.99,-37.874 -57.298,-37.814 -56.583,-37.717 -55.843,-37.581 -55.104,-37.446 -54.364,-37.311 -53.625,-37.175 -52.885,-37.04 -52.146,-36.905 -51.406,-36.769 -50.667,-36.634 -49.927,-36.499 -49.199,-36.338 -48.483,-36.151 -47.778,-35.939 -47.085,-35.701 -46.403,-35.438 -45.733,-35.149 -45.075,-34.834 -44.428,-34.494 -43.781,-34.153 -43.135,-33.813 -42.488,-33.473 -41.841,-33.132 -41.194,-32.792 -40.547,-32.452 -39.9,-32.111 -39.254,-31.771 -38.62,-31.431 -38,-31.091 -37.394,-30.751 -36.8,-30.41 -36.22,-30.07 -35.654,-29.731 -35.101,-29.391 -34.561,-29.051 -34.021,-28.711 -33.481,-28.371 -32.942,-28.031 -32.402,-27.692 -31.862,-27.352 -31.322,-27.012 -30.783,-26.672 -30.243,-26.332 -29.733,-25.987 -29.253,-25.637 -28.804,-25.281 -28.384,-24.92 -27.995,-24.553 -27.635,-24.181 -27.306,-23.803 -27.006,-23.421 -26.707,-23.038 -26.408,-22.655 -26.108,-22.272 -25.809,-21.89 -25.509,-21.507 -25.21,-21.124 -24.911,-20.741 -24.611,-20.359 -24.328,-19.97 -24.062,-19.577 -23.813,-19.178 -23.58,-18.773 -23.364,-18.363 -23.165,-17.948 -22.982,-17.527 -22.816,-17.101 -22.65,-16.675 -22.483,-16.248 -22.317,-15.822 -22.151,-15.396 -21.985,-14.97 -21.819,-14.543 -21.653,-14.117 -21.487,-13.691 -21.323,-13.277 -21.16,-12.877 -21,-12.489 -20.842,-12.114 -20.685,-11.753 -20.53,-11.404 -20.378,-11.067 -20.227,-10.744 -20.076,-10.421 -19.925,-10.098 -19.774,-9.774 -19.624,-9.451 -19.454,-9.087 -19.265,-8.683 -19.001,-8.118 -18.493,-7.027 -17.585,-6.43 -17.115,-6.121 -16.779,-5.9 -16.477,-5.701 -16.208,-5.524 -15.939,-5.347 -15.67,-5.17 -15.401,-4.994 -15.133,-4.817 -14.856,-4.643 -14.57,-4.473 -14.277,-4.306 -13.976,-4.142 -13.666,-3.982 -13.348,-3.825 -13.023,-3.671 -12.689,-3.521 -12.354,-3.37 -12.02,-3.22 -11.686,-3.069 -11.352,-2.919 -11.018,-2.768 -10.684,-2.618 -10.35,-2.467 -10.016,-2.317 -9.689,-2.151 -9.368,-1.971 -9.054,-1.775 -8.746,-1.564 -8.445,-1.339 -8.15,-1.098 -7.862,-0.842 -7.581,-0.572 -7.3,-0.301 -7.019,-0.03 -6.737,0.24 -6.456,0.511 -6.139,0.816 -5.788,1.154 -5.296,1.628 -4.346,2.541 -3.221,3.063 -2.637,3.334 -2.22,3.528 -1.845,3.702 -1.512,3.856 -1.137,4.03 -0.72,4.224 -0.136,4.494 0.989,5.017 1.6,4.659 1.917,4.474 2.144,4.342 2.347,4.222 2.528,4.117 2.732,3.997 2.959,3.865 3.275,3.68 3.887,3.322 3.984,2.086 4.034,1.444 4.07,0.986 4.102,0.574 4.131,0.207 4.16,-0.159 4.188,-0.526 4.217,-0.892 4.246,-1.259 4.261,-1.631 4.263,-2.009 4.253,-2.393 4.228,-2.783 4.191,-3.179 4.141,-3.58 4.077,-3.988 4,-4.401 3.923,-4.815 3.846,-5.228 3.769,-5.641 3.692,-6.055 3.615,-6.468 3.538,-6.881 3.461,-7.295 3.384,-7.708 3.34,-8.093 3.327,-8.449 3.347,-8.777 3.399,-9.077 3.483,-9.348 3.6,-9.59 3.748,-9.804 3.929,-9.99 4.11,-10.175 4.291,-10.361 4.472,-10.546 4.653,-10.732 4.834,-10.917 5.015,-11.103 5.196,-11.289 5.377,-11.474 5.59,-11.631 5.836,-11.76 6.114,-11.86 6.423,-11.932 6.766,-11.975 7.14,-11.99 7.547,-11.976 7.986,-11.934 8.425,-11.892 8.863,-11.849 9.302,-11.807 9.741,-11.765 10.18,-11.723 10.619,-11.681 11.058,-11.638 11.497,-11.596 11.94,-11.54 12.388,-11.47 12.841,-11.386 13.298,-11.288 13.76,-11.176 14.227,-11.05 14.698,-10.91 15.173,-10.756 15.649,-10.602 16.124,-10.448 16.6,-10.294 17.076,-10.14 17.551,-9.986 18.027,-9.832 18.502,-9.678 18.978,-9.525 19.445,-9.388 19.903,-9.269 20.353,-9.167 20.793,-9.082 21.225,-9.015 21.649,-8.965 22.063,-8.932 22.469,-8.916 22.875,-8.901 23.281,-8.885 23.687,-8.87 24.093,-8.855 24.499,-8.839 24.905,-8.824 25.311,-8.808 25.717,-8.793 26.133,-8.803 26.557,-8.84 26.991,-8.903 27.434,-8.992 27.886,-9.108 28.347,-9.249 28.818,-9.417 29.298,-9.611 29.778,-9.804 30.258,-9.998 30.737,-10.192 31.217,-10.385 31.697,-10.579 32.177,-10.773 32.657,-10.967 33.137,-11.16 33.635,-11.363 34.15,-11.574 34.684,-11.795 35.236,-12.024 35.805,-12.262 36.393,-12.508 36.998,-12.764 37.621,-13.028 38.245,-13.293 38.868,-13.557 39.492,-13.822 40.115,-14.086 40.738,-14.35 41.362,-14.615 41.985,-14.879 42.608,-15.144 43.253,-15.427 43.92,-15.728 44.608,-16.048 45.318,-16.387 46.05,-16.744 46.803,-17.12 47.578,-17.514 48.374,-17.927 49.17,-18.34 49.967,-18.753 50.763,-19.165 51.56,-19.578 52.356,-19.991 53.153,-20.404 53.949,-20.817 54.745,-21.23 55.546,-21.652 56.349,-22.084 57.157,-22.526 57.968,-22.978 58.783,-23.44 59.602,-23.911 60.424,-24.392 61.25,-24.882 62.076,-25.373 62.902,-25.863 63.728,-26.354 64.554,-26.845 65.38,-27.335 66.206,-27.826 67.032,-28.316 67.858,-28.807 68.684,-29.248 69.511,-29.639 70.339,-29.981 71.167,-30.273 71.995,-30.515 72.824,-30.707 73.653,-30.85 74.483,-30.944 75.313,-31.037 76.143,-31.13 76.973,-31.223 77.803,-31.317 78.633,-31.41 79.462,-31.503 80.292,-31.596 81.122,-31.69 81.949,-31.724 82.772,-31.698 83.593,-31.613 84.41,-31.469 85.223,-31.265 86.034,-31.002 86.841,-30.68 87.646,-30.298 88.45,-29.916 89.254,-29.535 90.058,-29.153 90.862,-28.771 91.667,-28.389 92.471,-28.007 93.275,-27.626 94.079,-27.244 94.88,-26.803 95.678,-26.302 96.473,-25.742 97.264,-25.123 98.052,-24.444 98.837,-23.706 99.619,-22.909 100.397,-22.052 101.176,-21.195 101.954,-20.338 102.733,-19.481 103.511,-18.624 104.29,-17.768 105.068,-16.911 105.847,-16.054 106.625,-15.197 107.553,-14.503 108.629,-13.971 109.855,-13.602 111.23,-13.395 112.754,-13.35 114.427,-13.469 116.249,-13.749 118.22,-14.193 120.191,-14.636 122.163,-15.079 124.134,-15.522 126.105,-15.966 128.323,-16.464 130.786,-17.018 134.236,-17.794 140.889,-19.29"
           stroke="#1a1917"
           stroke-width="2.533"
           stroke-linejoin="round"
           stroke-linecap="butt"
           id="polyline23" />
        <polyline
           points="-113.717,26.402 -114.065,22.773 -114.246,20.891 -114.375,19.547 -114.492,18.337 -114.595,17.262 -114.698,16.186 -114.802,15.111 -114.905,14.036 -115.008,12.96 -115.002,11.901 -114.886,10.858 -114.66,9.83 -114.325,8.819 -113.879,7.824 -113.325,6.845 -112.66,5.882 -111.886,4.935 -111.111,3.987 -110.337,3.04 -109.562,2.093 -108.788,1.146 -108.014,0.199 -107.239,-0.748 -106.465,-1.695 -105.691,-2.643 -104.904,-3.568 -104.106,-4.473 -103.297,-5.356 -102.475,-6.218 -101.641,-7.058 -100.796,-7.877 -99.939,-8.674 -99.07,-9.451 -98.201,-10.227 -97.332,-11.003 -96.463,-11.779 -95.594,-12.556 -94.725,-13.332 -93.856,-14.108 -92.987,-14.884 -92.118,-15.661 -91.238,-16.416 -90.345,-17.149 -89.441,-17.861 -88.524,-18.552 -87.596,-19.222 -86.656,-19.87 -85.705,-20.496 -84.741,-21.102 -83.777,-21.707 -82.814,-22.312 -81.85,-22.918 -80.887,-23.523 -79.923,-24.129 -78.96,-24.734 -77.996,-25.339 -77.032,-25.945 -76.145,-26.533 -75.333,-27.104 -74.596,-27.657 -73.936,-28.193 -73.351,-28.712 -72.843,-29.214 -72.41,-29.698 -72.052,-30.165 -71.695,-30.632 -71.338,-31.099 -70.981,-31.566 -70.624,-32.033 -70.266,-32.5 -69.909,-32.967 -69.552,-33.434 -69.195,-33.901 -68.814,-34.331 -68.409,-34.723 -67.98,-35.077 -67.527,-35.393 -67.05,-35.672 -66.55,-35.913 -66.025,-36.117 -65.477,-36.283 -64.928,-36.448 -64.38,-36.614 -63.832,-36.78 -63.283,-36.946 -62.735,-37.112 -62.187,-37.278 -61.638,-37.444 -61.09,-37.61 -60.518,-37.738 -59.922,-37.828 -59.302,-37.881 -58.658,-37.897 -57.99,-37.874 -57.298,-37.814 -56.583,-37.717 -55.843,-37.581 -55.104,-37.446 -54.364,-37.311 -53.625,-37.175 -52.885,-37.04 -52.146,-36.905 -51.406,-36.769 -50.667,-36.634 -49.927,-36.499 -49.199,-36.338 -48.483,-36.151 -47.778,-35.939 -47.085,-35.701 -46.403,-35.438 -45.733,-35.149 -45.075,-34.834 -44.428,-34.494 -43.781,-34.153 -43.135,-33.813 -42.488,-33.473 -41.841,-33.132 -41.194,-32.792 -40.547,-32.452 -39.9,-32.111 -39.254,-31.771 -38.62,-31.431 -38,-31.091 -37.394,-30.751 -36.8,-30.41 -36.22,-30.07 -35.654,-29.731 -35.101,-29.391 -34.561,-29.051 -34.021,-28.711 -33.481,-28.371 -32.942,-28.031 -32.402,-27.692 -31.862,-27.352 -31.322,-27.012 -30.783,-26.672 -30.243,-26.332 -29.733,-25.987 -29.253,-25.637 -28.804,-25.281 -28.384,-24.92 -27.995,-24.553 -27.635,-24.181 -27.306,-23.803 -27.006,-23.421 -26.707,-23.038 -26.408,-22.655 -26.108,-22.272 -25.809,-21.89 -25.509,-21.507 -25.21,-21.124 -24.911,-20.741 -24.611,-20.359 -24.328,-19.97 -24.062,-19.577 -23.813,-19.178 -23.58,-18.773 -23.364,-18.363 -23.165,-17.948 -22.982,-17.527 -22.816,-17.101 -22.65,-16.675 -22.483,-16.248 -22.317,-15.822 -22.151,-15.396 -21.985,-14.97 -21.819,-14.543 -21.653,-14.117 -21.487,-13.691 -21.323,-13.277 -21.16,-12.877 -21,-12.489 -20.842,-12.114 -20.685,-11.753 -20.53,-11.404 -20.378,-11.067 -20.227,-10.744 -20.076,-10.421 -19.925,-10.098 -19.774,-9.774 -19.624,-9.451 -19.454,-9.087 -19.265,-8.683 -19.001,-8.118 -18.493,-7.027 -17.585,-6.43 -17.115,-6.121 -16.779,-5.9 -16.477,-5.701 -16.208,-5.524 -15.939,-5.347 -15.67,-5.17 -15.401,-4.994 -15.133,-4.817 -14.856,-4.643 -14.57,-4.473 -14.277,-4.306 -13.976,-4.142 -13.666,-3.982 -13.348,-3.825 -13.023,-3.671 -12.689,-3.521 -12.354,-3.37 -12.02,-3.22 -11.686,-3.069 -11.352,-2.919 -11.018,-2.768 -10.684,-2.618 -10.35,-2.467 -10.016,-2.317 -9.689,-2.151 -9.368,-1.971 -9.054,-1.775 -8.746,-1.564 -8.445,-1.339 -8.15,-1.098 -7.862,-0.842 -7.581,-0.572 -7.3,-0.301 -7.019,-0.03 -6.737,0.24 -6.456,0.511 -6.139,0.816 -5.788,1.154 -5.296,1.628 -4.346,2.541 -3.221,3.063 -2.637,3.334 -2.22,3.528 -1.845,3.702 -1.512,3.856 -1.137,4.03 -0.72,4.224 -0.136,4.494 0.989,5.017 1.6,4.659 1.917,4.474 2.144,4.342 2.347,4.222 2.528,4.117 2.732,3.997 2.959,3.865 3.275,3.68 3.887,3.322 3.984,2.086 4.034,1.444 4.07,0.986 4.102,0.574 4.131,0.207 4.16,-0.159 4.188,-0.526 4.217,-0.892 4.246,-1.259 4.261,-1.631 4.263,-2.009 4.253,-2.393 4.228,-2.783 4.191,-3.179 4.141,-3.58 4.077,-3.988 4,-4.401 3.923,-4.815 3.846,-5.228 3.769,-5.641 3.692,-6.055 3.615,-6.468 3.538,-6.881 3.461,-7.295 3.384,-7.708 3.34,-8.093 3.327,-8.449 3.347,-8.777 3.399,-9.077 3.483,-9.348 3.6,-9.59 3.748,-9.804 3.929,-9.99 4.11,-10.175 4.291,-10.361 4.472,-10.546 4.653,-10.732 4.834,-10.917 5.015,-11.103 5.196,-11.289 5.377,-11.474 5.59,-11.631 5.836,-11.76 6.114,-11.86 6.423,-11.932 6.766,-11.975 7.14,-11.99 7.547,-11.976 7.986,-11.934 8.425,-11.892 8.863,-11.849 9.302,-11.807 9.741,-11.765 10.18,-11.723 10.619,-11.681 11.058,-11.638 11.497,-11.596 11.94,-11.54 12.388,-11.47 12.841,-11.386 13.298,-11.288 13.76,-11.176 14.227,-11.05 14.698,-10.91 15.173,-10.756 15.649,-10.602 16.124,-10.448 16.6,-10.294 17.076,-10.14 17.551,-9.986 18.027,-9.832 18.502,-9.678 18.978,-9.525 19.445,-9.388 19.903,-9.269 20.353,-9.167 20.793,-9.082 21.225,-9.015 21.649,-8.965 22.063,-8.932 22.469,-8.916 22.875,-8.901 23.281,-8.885 23.687,-8.87 24.093,-8.855 24.499,-8.839 24.905,-8.824 25.311,-8.808 25.717,-8.793 26.133,-8.803 26.557,-8.84 26.991,-8.903 27.434,-8.992 27.886,-9.108 28.347,-9.249 28.818,-9.417 29.298,-9.611 29.778,-9.804 30.258,-9.998 30.737,-10.192 31.217,-10.385 31.697,-10.579 32.177,-10.773 32.657,-10.967 33.137,-11.16 33.635,-11.363 34.15,-11.574 34.684,-11.795 35.236,-12.024 35.805,-12.262 36.393,-12.508 36.998,-12.764 37.621,-13.028 38.245,-13.293 38.868,-13.557 39.492,-13.822 40.115,-14.086 40.738,-14.35 41.362,-14.615 41.985,-14.879 42.608,-15.144 43.253,-15.427 43.92,-15.728 44.608,-16.048 45.318,-16.387 46.05,-16.744 46.803,-17.12 47.578,-17.514 48.374,-17.927 49.17,-18.34 49.967,-18.753 50.763,-19.165 51.56,-19.578 52.356,-19.991 53.153,-20.404 53.949,-20.817 54.745,-21.23 55.546,-21.652 56.349,-22.084 57.157,-22.526 57.968,-22.978 58.783,-23.44 59.602,-23.911 60.424,-24.392 61.25,-24.882 62.076,-25.373 62.902,-25.863 63.728,-26.354 64.554,-26.845 65.38,-27.335 66.206,-27.826 67.032,-28.316 67.858,-28.807 68.684,-29.248 69.511,-29.639 70.339,-29.981 71.167,-30.273 71.995,-30.515 72.824,-30.707 73.653,-30.85 74.483,-30.944 75.313,-31.037 76.143,-31.13 76.973,-31.223 77.803,-31.317 78.633,-31.41 79.462,-31.503 80.292,-31.596 81.122,-31.69 81.949,-31.724 82.772,-31.698 83.593,-31.613 84.41,-31.469 85.223,-31.265 86.034,-31.002 86.841,-30.68 87.646,-30.298 88.45,-29.916 89.254,-29.535 90.058,-29.153 90.862,-28.771 91.667,-28.389 92.471,-28.007 93.275,-27.626 94.079,-27.244 94.88,-26.803 95.678,-26.302 96.473,-25.742 97.264,-25.123 98.052,-24.444 98.837,-23.706 99.619,-22.909 100.397,-22.052 101.176,-21.195 101.954,-20.338 102.733,-19.481 103.511,-18.624 104.29,-17.768 105.068,-16.911 105.847,-16.054 106.625,-15.197 107.553,-14.503 108.629,-13.971 109.855,-13.602 111.23,-13.395 112.754,-13.35 114.427,-13.469 116.249,-13.749 118.22,-14.193 120.191,-14.636 122.163,-15.079 124.134,-15.522 126.105,-15.966 128.323,-16.464 130.786,-17.018 134.236,-17.794 140.889,-19.29"
           stroke="#67635c"
           stroke-width="2.31"
           stroke-linejoin="round"
           stroke-linecap="round"
           id="polyline25" />
        <g
           fill="none"
           id="g31">
          <line
             x1="6.3210001"
             y1="3.938"
             x2="1.592"
             y2="2.303"
             stroke="#1a1917"
             stroke-width="2.223"
             stroke-linejoin="round"
             stroke-linecap="butt"
             id="line27" />
          <line
             x1="6.3210001"
             y1="3.938"
             x2="1.592"
             y2="2.303"
             stroke="#ccc5b8"
             stroke-width="1.777"
             stroke-linejoin="round"
             stroke-linecap="round"
             id="line29" />
        </g>
        <g
           fill="none"
           id="g37">
          <line
             x1="-0.49599999"
             y1="7.0409999"
             x2="1.226"
             y2="2.517"
             stroke="#1a1917"
             stroke-width="2.223"
             stroke-linejoin="round"
             stroke-linecap="butt"
             id="line33" />
          <line
             x1="-0.49599999"
             y1="7.0409999"
             x2="1.226"
             y2="2.517"
             stroke="#ccc5b8"
             stroke-width="1.777"
             stroke-linejoin="round"
             stroke-linecap="round"
             id="line35" />
        </g>
        <g
           fill="none"
           id="g43">
          <line
             x1="-16.569"
             y1="-8.6409998"
             x2="-20.416"
             y2="-5.4130001"
             stroke="#1a1917"
             stroke-width="1.023"
             stroke-linejoin="round"
             stroke-linecap="butt"
             id="line39" />
          <line
             x1="-16.569"
             y1="-8.6409998"
             x2="-20.416"
             y2="-5.4130001"
             stroke="#ccc5b8"
             stroke-width="0.577"
             stroke-linejoin="round"
             stroke-linecap="round"
             id="line41" />
        </g>
        <g
           fill="none"
           id="g49">
          <line
             x1="-2.9170001"
             y1="0.47600001"
             x2="-5.7750001"
             y2="4.6059999"
             stroke="#1a1917"
             stroke-width="1.023"
             stroke-linejoin="round"
             stroke-linecap="butt"
             id="line45" />
          <line
             x1="-2.9170001"
             y1="0.47600001"
             x2="-5.7750001"
             y2="4.6059999"
             stroke="#ccc5b8"
             stroke-width="0.577"
             stroke-linejoin="round"
             stroke-linecap="round"
             id="line47" />
        </g>
      </g>
      <g
         fill="#99948a"
         stroke="#1a1917"
         stroke-width="0.223"
         id="g55">
        <polygon
           points="-0.72,-2.773 -1.739,-2.146 -2.77,-3.821 -1.751,-4.448 "
           id="polygon53" />
      </g>
      <g
         fill="#99948a"
         stroke="#1a1917"
         stroke-width="0.223"
         id="g67">
        <g
           fill="#1a1917"
           stroke="#1a1917"
           stroke-width="0.223"
           stroke-linejoin="round"
           id="g63">
          <polygon
             points="13.231,3.853 16.253,4.617 16.253,5.417 13.231,4.653 "
             id="polygon57" />
          <polygon
             points="9.798,2.985 10.889,-1.331 11.785,-4.877 15.219,-4.009 15.219,-3.209 11.785,-4.077 10.889,-0.531 9.798,3.785 6.829,3.035 6.829,2.235 "
             id="polygon59" />
          <polygon
             points="17.344,1.101 16.253,5.417 16.253,4.617 17.344,0.301 18.24,-3.245 19.235,-7.182 19.235,-6.382 18.24,-2.445 "
             id="polygon61" />
        </g>
        <polygon
           points="9.811,-9.564 12.78,-8.813 16.214,-7.945 19.235,-7.182 18.24,-3.245 17.344,0.301 16.253,4.617 13.231,3.853 14.322,-0.463 15.219,-4.009 11.785,-4.877 10.889,-1.331 9.798,2.985 6.829,2.235 7.92,-2.081 8.816,-5.627 "
           id="polygon65" />
      </g>
      <g
         fill="#99948a"
         stroke="#1a1917"
         stroke-width="0.223"
         id="g103">
        <g
           fill="#1a1917"
           stroke="#1a1917"
           stroke-width="0.223"
           stroke-linejoin="round"
           id="g85">
          <polygon
             points="-12.785,-7.157 -9.87,-5.843 -8.175,-9.604 -8.158,-9.767 -8.158,-9.367 -8.175,-9.204 -9.87,-5.443 -12.785,-6.757 -14.494,-7.881 -14.494,-8.281 "
             id="polygon69" />
          <polygon
             points="-9.747,-11.175 -9.747,-11.575 -5.704,-10.633 -4.773,-14.627 -4.773,-14.227 -5.704,-10.233 "
             id="polygon71" />
          <polygon
             points="-5.574,-4.979 -7.843,-8.664 -7.843,-9.064 -5.574,-5.379 -4.195,-6.228 -2.553,-7.912 -2.553,-7.512 -4.195,-5.828 "
             id="polygon73" />
          <polygon
             points="-9.87,-5.443 -9.87,-5.843 -6.954,-4.53 -5.574,-5.379 -5.574,-4.979 -6.954,-4.13 "
             id="polygon75" />
          <polygon
             points="-5.237,-12.237 -5.237,-12.637 -1.822,-11.841 -1.358,-13.831 -1.358,-13.431 -1.822,-11.441 "
             id="polygon77" />
          <polygon
             points="-3.902,-8.827 -3.902,-9.227 -2.553,-7.912 0.271,-10.807 0.271,-10.407 -2.553,-7.512 "
             id="polygon79" />
          <polygon
             points="-19.089,-15.555 -19.951,-17.766 -19.951,-18.166 -19.089,-15.955 -17.95,-16.399 -17.662,-17.632 -17.662,-17.232 -17.95,-15.999 "
             id="polygon81" />
          <polygon
             points="-0.4,-11.98 -0.4,-12.38 0.73,-11.278 2.371,-12.961 2.371,-12.561 0.73,-10.878 "
             id="polygon83" />
        </g>
        <polygon
           points="-8.158,-9.767 -8.175,-9.604 -9.87,-5.843 -12.785,-7.157 -14.494,-8.281 -12.245,-11.701 -11.399,-11.503 -10.072,-10.63 "
           id="polygon87" />
        <polygon
           points="-5.704,-10.633 -9.747,-11.575 -8.815,-15.57 -4.773,-14.627 "
           id="polygon89" />
        <polygon
           points="-6.272,-10.459 -5.704,-10.633 -5.251,-10.543 -2.553,-7.912 -4.195,-6.228 -5.574,-5.379 -7.843,-9.064 -7.314,-9.39 "
           id="polygon91" />
        <polygon
           points="-7.843,-9.064 -5.574,-5.379 -6.954,-4.53 -9.87,-5.843 -8.551,-8.771 -8.418,-8.711 "
           id="polygon93" />
        <polygon
           points="-1.822,-11.841 -5.237,-12.637 -4.773,-14.627 -1.358,-13.831 "
           id="polygon95" />
        <polygon
           points="-3.902,-9.227 -1.078,-12.123 0.271,-10.807 -2.553,-7.912 "
           id="polygon97" />
        <polygon
           points="-19.089,-15.955 -19.951,-18.166 -17.662,-17.632 -17.95,-16.399 "
           id="polygon99" />
        <polygon
           points="0.73,-11.278 -0.4,-12.38 -0.128,-13.544 2.371,-12.961 "
           id="polygon101" />
      </g>
      <g
         fill="#99948a"
         stroke="#1a1917"
         stroke-width="0.223"
         id="g165">
        <g
           fill="#1a1917"
           stroke="#1a1917"
           stroke-width="0.223"
           stroke-linejoin="round"
           id="g139">
          <polygon
             points="-19.415,0.077 -19.517,-0.497 -19.517,-0.897 -19.415,-0.323 -15.101,2.514 -14.672,2.708 -14.672,3.108 -15.101,2.914 "
             id="polygon105" />
          <polygon
             points="-14.672,2.708 -13.05,-0.891 -13.05,-0.491 -14.672,3.108 "
             id="polygon107" />
          <polygon
             points="-22.329,8.144 -19.15,11.067 -19.15,11.467 -22.329,8.544 "
             id="polygon109" />
          <polygon
             points="-19.15,11.067 -15.048,6.606 -15.048,7.006 -19.15,11.467 "
             id="polygon111" />
          <polygon
             points="-14.942,3.707 -14.942,3.307 -13.489,3.962 -11.545,5.833 -11.545,6.233 -13.489,4.362 "
             id="polygon113" />
          <polygon
             points="-11.545,5.833 -8.258,2.417 -8.258,2.817 -11.545,6.233 "
             id="polygon115" />
          <polygon
             points="-17.23,13.233 -19.15,11.467 -19.15,11.067 -17.23,12.833 -14.772,13.213 -13.961,7.974 -13.961,8.374 -14.772,13.613 "
             id="polygon117" />
          <polygon
             points="-25.305,5.407 -22.329,8.144 -22.329,8.544 -25.305,5.807 "
             id="polygon119" />
          <polygon
             points="-22.329,8.144 -20.282,5.919 -20.282,6.319 -22.329,8.544 "
             id="polygon121" />
          <polygon
             points="-14.772,13.213 -10.599,13.86 -10.599,14.26 -14.772,13.613 "
             id="polygon123" />
          <polygon
             points="-10.599,13.86 -9.792,8.647 -9.792,9.047 -10.599,14.26 "
             id="polygon125" />
          <polygon
             points="-25.171,1.693 -25.171,1.293 -22.883,3.182 -19.517,-0.897 -19.517,-0.497 -22.883,3.582 "
             id="polygon127" />
          <polygon
             points="-21.805,-2.385 -21.805,-2.785 -19.517,-0.897 -17.809,-3.493 -17.809,-3.093 -19.517,-0.497 "
             id="polygon129" />
          <polygon
             points="-27.159,4.102 -27.159,3.702 -25.373,5.344 -23.384,3.182 -23.384,3.582 -25.373,5.744 "
             id="polygon131" />
          <polygon
             points="-8.112,11.242 -8.112,10.842 -5.972,12.412 -3.625,9.213 -3.625,9.613 -5.972,12.812 "
             id="polygon133" />
          <polygon
             points="-9.857,14.375 -9.857,13.975 -7.399,14.355 -5.972,12.412 -5.972,12.812 -7.399,14.755 "
             id="polygon135" />
          <polygon
             points="-4.686,7.775 -4.686,7.375 -3.119,8.525 -1.693,6.581 -1.693,6.981 -3.119,8.925 "
             id="polygon137" />
        </g>
        <polygon
           points="-15.598,-2.039 -13.05,-0.891 -14.672,2.708 -15.101,2.514 -19.415,-0.323 -19.517,-0.897 -17.809,-3.493 "
           id="polygon141" />
        <polygon
           points="-18.226,3.683 -15.048,6.606 -19.15,11.067 -22.329,8.144 "
           id="polygon143" />
        <polygon
           points="-14.942,3.307 -13.05,-0.891 -10.502,0.257 -8.258,2.417 -11.545,5.833 -13.489,3.962 "
           id="polygon145" />
        <polygon
           points="-13.961,7.974 -14.772,13.213 -17.23,12.833 -19.15,11.067 -15.821,7.447 -15.508,7.734 "
           id="polygon147" />
        <polygon
           points="-23.258,3.182 -20.282,5.919 -22.329,8.144 -25.305,5.407 "
           id="polygon149" />
        <polygon
           points="-13.965,8 -9.792,8.647 -10.599,13.86 -14.772,13.213 "
           id="polygon151" />
        <polygon
           points="-19.517,-0.897 -22.883,3.182 -25.171,1.293 -21.805,-2.785 "
           id="polygon153" />
        <polygon
           points="-17.809,-3.493 -19.517,-0.897 -21.805,-2.785 -20.02,-4.947 "
           id="polygon155" />
        <polygon
           points="-25.373,5.344 -27.159,3.702 -25.374,1.539 -23.384,3.182 "
           id="polygon157" />
        <polygon
           points="-8.112,10.842 -5.764,7.643 -3.625,9.213 -5.972,12.412 "
           id="polygon159" />
        <polygon
           points="-9.857,13.975 -9.243,10.011 -5.972,12.412 -7.399,14.355 "
           id="polygon161" />
        <polygon
           points="-3.119,8.525 -4.686,7.375 -3.853,5.579 -1.693,6.581 "
           id="polygon163" />
      </g>
      <g
         fill="#99948a"
         stroke="#1a1917"
         stroke-width="0.223"
         id="g285">
        <g
           fill="#1a1917"
           stroke="#1a1917"
           stroke-width="0.223"
           stroke-linejoin="round"
           id="g191">
          <polygon
             points="7.986,7.592 7.986,7.192 12.914,8.437 13.437,6.368 13.437,6.768 12.914,8.837 "
             id="polygon167" />
          <polygon
             points="6.273,8.363 8.652,12.584 8.652,12.984 6.273,8.763 "
             id="polygon169" />
          <polygon
             points="8.652,12.584 10.522,11.53 10.522,11.93 8.652,12.984 "
             id="polygon171" />
          <polygon
             points="8.652,12.584 11.324,17.326 11.324,17.726 8.652,12.984 "
             id="polygon173" />
          <polygon
             points="11.324,17.326 13.889,15.881 13.889,16.281 11.324,17.726 "
             id="polygon175" />
          <polygon
             points="12.399,10.877 12.399,10.477 13.061,10.998 16.79,9.102 16.79,9.502 13.061,11.398 "
             id="polygon177" />
          <polygon
             points="13.061,11.398 13.061,10.998 15.002,14.815 18.731,12.919 18.731,13.319 15.002,15.215 "
             id="polygon179" />
          <polygon
             points="4.805,5.757 6.185,8.206 6.185,8.606 4.805,6.157 "
             id="polygon181" />
          <polygon
             points="6.185,8.606 6.185,8.206 7.986,7.192 8,4.994 8,5.394 7.986,7.592 "
             id="polygon183" />
          <polygon
             points="14.041,16.793 14.041,16.393 14.971,19.527 19.095,18.304 19.095,18.704 14.971,19.927 "
             id="polygon185" />
          <polygon
             points="11.324,17.726 11.324,17.326 12.908,20.139 14.971,19.527 14.971,19.927 12.908,20.539 "
             id="polygon187" />
          <polygon
             points="18.166,15.57 18.166,15.17 19.095,18.304 21.158,17.692 21.158,18.092 19.095,18.704 "
             id="polygon189" />
        </g>
        <polygon
           points="12.914,8.437 7.986,7.192 8.509,5.122 13.437,6.368 "
           id="polygon193" />
        <polygon
           points="8.144,7.309 10.522,11.53 8.652,12.584 6.273,8.363 "
           id="polygon195" />
        <polygon
           points="11.217,11.139 13.889,15.881 11.324,17.326 8.652,12.584 "
           id="polygon197" />
        <polygon
           points="15.689,6.937 16.79,9.102 13.061,10.998 12.399,10.477 13.437,6.368 "
           id="polygon199" />
        <polygon
           points="15.002,14.815 13.061,10.998 16.79,9.102 18.731,12.919 "
           id="polygon201" />
        <polygon
           points="4.805,5.757 6.681,4.66 8,4.994 7.986,7.192 6.185,8.206 "
           id="polygon203" />
        <polygon
           points="14.041,16.393 18.166,15.17 19.095,18.304 14.971,19.527 "
           id="polygon205" />
        <polygon
           points="13.899,15.915 14.971,19.527 12.908,20.139 11.324,17.326 13.75,15.959 "
           id="polygon207" />
        <polygon
           points="19.095,18.304 18.166,15.17 19.524,14.479 21.158,17.692 "
           id="polygon209" />
        <g
           fill="#1a1917"
           stroke="#1a1917"
           stroke-width="0.223"
           stroke-linejoin="round"
           id="g229">
          <polygon
             points="1.436,12.152 1.218,12.318 -0.545,12.643 -2.379,11.296 -2.379,10.896 -0.545,12.243 1.218,11.918 1.436,11.752 1.522,11.635 1.806,11.469 1.806,11.869 1.522,12.035 "
             id="polygon211" />
          <polygon
             points="1.806,11.869 1.806,11.469 2.464,10.965 2.631,9.692 2.631,10.092 2.464,11.365 "
             id="polygon213" />
          <polygon
             points="-0.545,12.643 -0.545,12.243 -0.229,15.277 1.548,15.092 1.548,15.492 -0.229,15.677 "
             id="polygon215" />
          <polygon
             points="1.341,13.498 1.341,13.098 1.548,15.092 5.188,14.713 5.188,15.113 1.548,15.492 "
             id="polygon217" />
          <polygon
             points="-4.795,14.588 -4.795,14.188 -3.023,15.446 -0.545,12.243 -0.545,12.643 -3.023,15.846 "
             id="polygon219" />
          <polygon
             points="3.5,9.603 3.5,9.203 5.806,13.294 7.573,12.299 7.573,12.699 5.806,13.694 "
             id="polygon221" />
          <polygon
             points="1.471,8.107 1.471,7.707 2.631,9.692 5.267,8.207 5.267,8.607 2.631,10.092 "
             id="polygon223" />
          <polygon
             points="5.806,13.694 5.806,13.294 5.945,14.634 8.725,14.345 8.725,14.745 5.945,15.034 "
             id="polygon225" />
          <polygon
             points="-5.998,16.227 -5.998,15.827 -5.952,15.873 -3.01,15.567 -3.01,15.967 -5.952,16.273 "
             id="polygon227" />
        </g>
        <polygon
           points="-1.173,9.253 1.471,7.707 2.631,9.692 2.464,10.965 1.806,11.469 1.522,11.635 1.436,11.752 1.218,11.918 -0.545,12.243 -2.379,10.896 "
           id="polygon231" />
        <polygon
           points="-0.545,12.243 1.232,12.058 1.548,15.092 -0.229,15.277 "
           id="polygon233" />
        <polygon
           points="1.341,13.098 4.98,12.719 5.188,14.713 1.548,15.092 "
           id="polygon235" />
        <polygon
           points="-0.545,12.243 -3.023,15.446 -4.795,14.188 -2.379,10.896 "
           id="polygon237" />
        <polygon
           points="5.806,13.294 3.5,9.203 5.267,8.207 7.573,12.299 "
           id="polygon239" />
        <polygon
           points="5.267,8.207 2.631,9.692 1.471,7.707 4.115,6.161 "
           id="polygon241" />
        <polygon
           points="5.945,14.634 5.806,13.294 7.573,12.299 8.725,14.345 "
           id="polygon243" />
        <polygon
           points="-5.952,15.873 -5.998,15.827 -4.795,14.188 -3.023,15.446 -3.01,15.567 "
           id="polygon245" />
        <g
           fill="#1a1917"
           stroke="#1a1917"
           stroke-width="0.223"
           stroke-linejoin="round"
           id="g267">
          <polygon
             points="-1.904,16.656 -1.904,16.256 -1.738,17.845 1.604,17.497 1.604,17.897 -1.738,18.245 "
             id="polygon247" />
          <polygon
             points="-3.512,18.323 -0.084,21.764 -0.084,22.164 -3.512,18.723 "
             id="polygon249" />
          <polygon
             points="-0.084,21.764 2.153,19.536 2.153,19.936 -0.084,22.164 "
             id="polygon251" />
          <polygon
             points="1.439,16.308 1.439,15.908 1.709,18.504 6.487,18.007 6.487,18.407 1.709,18.904 "
             id="polygon253" />
          <polygon
             points="-0.084,22.164 -0.084,21.764 1.63,23.485 4.253,22.707 4.253,23.107 1.63,23.885 "
             id="polygon255" />
          <polygon
             points="3.391,20.199 3.391,19.799 4.253,22.707 8.736,21.377 8.736,21.777 4.253,23.107 "
             id="polygon257" />
          <polygon
             points="-5.226,16.602 -3.512,18.323 -3.512,18.723 -5.226,17.002 "
             id="polygon259" />
          <polygon
             points="-3.512,18.323 -2.694,17.507 -2.694,17.907 -3.512,18.723 "
             id="polygon261" />
          <polygon
             points="6.487,18.407 6.216,15.81 6.216,15.41 6.487,18.007 8.795,18.777 10.638,17.738 10.638,18.138 8.795,19.177 "
             id="polygon263" />
          <polygon
             points="8.795,19.177 8.795,18.777 9.499,21.151 12.122,20.372 12.122,20.772 9.499,21.551 "
             id="polygon265" />
        </g>
        <polygon
           points="1.604,17.497 -1.738,17.845 -1.904,16.256 1.439,15.908 "
           id="polygon269" />
        <polygon
           points="-3.512,18.323 -2.694,17.507 1.77,19.087 2.153,19.536 -0.084,21.764 "
           id="polygon271" />
        <polygon
           points="6.487,18.007 1.709,18.504 1.439,15.908 6.216,15.41 "
           id="polygon273" />
        <polygon
           points="1.63,23.485 -0.084,21.764 2.153,19.536 3.391,19.799 4.253,22.707 "
           id="polygon275" />
        <polygon
           points="3.391,19.799 7.873,18.469 8.736,21.377 4.253,22.707 "
           id="polygon277" />
        <polygon
           points="-2.814,16.351 -2.694,17.507 -3.512,18.323 -5.226,16.602 "
           id="polygon279" />
        <polygon
           points="9.153,15.104 10.638,17.738 8.795,18.777 6.487,18.007 6.216,15.41 "
           id="polygon281" />
        <polygon
           points="9.499,21.151 8.795,18.777 10.638,17.738 12.122,20.372 "
           id="polygon283" />
      </g>
      <g
         fill="#99948a"
         stroke="#1a1917"
         stroke-width="0.223"
         id="g297">
        <g
           fill="#1a1917"
           stroke="#1a1917"
           stroke-width="0.223"
           stroke-linejoin="round"
           id="g291">
          <polygon
             points="-1.033,-14.177 -1.033,-14.577 2.851,-13.671 4.138,-14.752 4.138,-14.352 2.851,-13.271 "
             id="polygon287" />
          <polygon
             points="0.77,-18.359 0.77,-18.759 4.138,-14.752 5.424,-15.833 5.424,-15.433 4.138,-14.352 "
             id="polygon289" />
        </g>
        <polygon
           points="-0.011,-18.962 0.77,-18.759 4.138,-14.752 2.851,-13.671 -1.033,-14.577 "
           id="polygon293" />
        <polygon
           points="4.138,-14.752 0.77,-18.759 5.245,-19.011 5.424,-15.833 "
           id="polygon295" />
      </g>
      <g
         fill="#99948a"
         stroke="#1a1917"
         stroke-width="0.223"
         id="g335">
        <g
           fill="#1a1917"
           stroke="#1a1917"
           stroke-width="0.223"
           stroke-linejoin="round"
           id="g319">
          <polygon
             points="5.729,-24.65 6.065,-18.685 6.065,-18.285 5.729,-24.25 "
             id="polygon299" />
          <polygon
             points="6.065,-18.685 10.308,-18.924 10.308,-18.524 6.065,-18.285 "
             id="polygon301" />
          <polygon
             points="6.065,-18.285 6.065,-18.685 6.248,-15.425 9.938,-15.071 9.938,-14.671 6.248,-15.025 "
             id="polygon303" />
          <polygon
             points="9.938,-15.071 10.308,-18.924 10.308,-18.524 9.938,-14.671 "
             id="polygon305" />
          <polygon
             points="13.627,-14.316 9.938,-14.671 9.938,-15.071 13.627,-14.716 17.392,-13.498 19.028,-18.553 19.028,-18.153 17.392,-13.098 "
             id="polygon307" />
          <polygon
             points="5.514,-28.465 5.698,-25.205 5.698,-24.805 5.514,-28.065 "
             id="polygon309" />
          <polygon
             points="5.698,-25.205 9.063,-25.395 9.063,-24.995 5.698,-24.805 "
             id="polygon311" />
          <polygon
             points="7.914,-28.791 7.914,-29.191 9.063,-25.395 13.669,-26.788 13.669,-26.388 9.063,-24.995 "
             id="polygon313" />
          <polygon
             points="21.156,-11.879 17.392,-13.098 17.392,-13.498 21.156,-12.279 23.891,-12.175 24.077,-17.061 24.077,-16.661 23.891,-11.775 "
             id="polygon315" />
          <polygon
             points="28.597,-15.558 28.597,-15.958 29.67,-13.3 32.714,-14.529 32.714,-14.129 29.67,-12.9 "
             id="polygon317" />
        </g>
        <polygon
           points="9.973,-24.889 10.308,-18.924 6.065,-18.685 5.729,-24.65 "
           id="polygon321" />
        <polygon
           points="6.065,-18.685 10.308,-18.924 9.938,-15.071 6.248,-15.425 "
           id="polygon323" />
        <polygon
           points="9.938,-15.071 10.308,-18.924 11.226,-19.908 16.369,-19.414 19.028,-18.553 17.392,-13.498 13.627,-14.716 "
           id="polygon325" />
        <polygon
           points="7.914,-29.191 9.063,-25.395 5.698,-25.205 5.514,-28.465 "
           id="polygon327" />
        <polygon
           points="13.669,-26.788 9.063,-25.395 7.914,-29.191 12.52,-30.585 "
           id="polygon329" />
        <polygon
           points="21.156,-12.279 17.392,-13.498 18.794,-17.831 18.988,-17.768 23.502,-17.596 24.077,-17.061 23.891,-12.175 "
           id="polygon331" />
        <polygon
           points="29.67,-13.3 28.597,-15.958 30.676,-17.423 32.714,-14.529 "
           id="polygon333" />
      </g>
      <g
         fill="#99948a"
         stroke="#1a1917"
         stroke-width="0.223"
         id="g391">
        <g
           fill="#1a1917"
           stroke="#1a1917"
           stroke-width="0.223"
           stroke-linejoin="round"
           id="g365">
          <polygon
             points="25.645,-1.741 25.645,-2.141 28.039,-2.05 31.036,-3.259 31.036,-2.859 28.039,-1.65 "
             id="polygon337" />
          <polygon
             points="18.106,7.677 18.106,7.277 20.025,11.051 22.906,9.586 22.906,9.986 20.025,11.451 "
             id="polygon339" />
          <polygon
             points="21.943,-1.729 21.943,-2.129 25.639,-1.989 25.802,-6.276 25.802,-5.876 25.639,-1.589 "
             id="polygon341" />
          <polygon
             points="17.65,3.363 17.65,2.963 20.803,3.833 22.356,-1.797 22.356,-1.397 20.803,4.233 "
             id="polygon343" />
          <polygon
             points="29.019,11.216 29.019,10.816 30.268,14.937 33.674,13.905 33.674,14.305 30.268,15.337 "
             id="polygon345" />
          <polygon
             points="20.514,4.88 20.803,3.833 20.803,4.233 20.514,5.28 "
             id="polygon347" />
          <polygon
             points="17.038,5.578 17.038,5.178 18.106,7.277 20.988,5.812 20.988,6.212 18.106,7.677 "
             id="polygon349" />
          <polygon
             points="29.539,-6.568 29.539,-6.968 30.524,-4.527 33.544,-5.746 33.544,-5.346 30.524,-4.127 "
             id="polygon351" />
          <polygon
             points="25.056,13.542 25.056,13.142 25.993,16.233 30.268,14.937 30.268,15.337 25.993,16.633 "
             id="polygon353" />
          <polygon
             points="20.025,11.051 21.725,14.395 21.725,14.795 20.025,11.451 "
             id="polygon355" />
          <polygon
             points="21.725,14.395 25.247,12.604 25.247,13.004 21.725,14.795 "
             id="polygon357" />
          <polygon
             points="19.259,-2.47 19.259,-2.87 21.943,-2.129 22.106,-6.417 22.106,-6.017 21.943,-1.729 "
             id="polygon359" />
          <polygon
             points="33.315,-8.093 33.315,-8.493 34.054,-6.663 35.775,-7.126 35.775,-6.726 34.054,-6.263 "
             id="polygon361" />
          <polygon
             points="21.99,15.317 21.99,14.917 23.105,17.108 25.834,16.281 25.834,16.681 23.105,17.508 "
             id="polygon363" />
        </g>
        <polygon
           points="25.645,-2.141 25.802,-6.276 27.65,-6.206 29.539,-6.968 31.036,-3.259 28.039,-2.05 "
           id="polygon367" />
        <polygon
           points="20.025,11.051 18.106,7.277 20.988,5.812 22.906,9.586 "
           id="polygon369" />
        <polygon
           points="25.639,-1.989 21.943,-2.129 22.106,-6.417 25.802,-6.276 "
           id="polygon371" />
        <polygon
           points="22.356,-1.797 20.803,3.833 17.65,2.963 19.203,-2.667 "
           id="polygon373" />
        <polygon
           points="33.674,13.905 30.268,14.937 29.019,10.816 32.425,9.783 "
           id="polygon375" />
        <polygon
           points="20.988,5.812 18.106,7.277 17.038,5.178 17.65,2.963 20.803,3.833 20.514,4.88 "
           id="polygon377" />
        <polygon
           points="33.544,-5.746 30.524,-4.527 29.539,-6.968 32.559,-8.188 "
           id="polygon379" />
        <polygon
           points="25.056,13.142 29.331,11.846 30.268,14.937 25.993,16.233 "
           id="polygon381" />
        <polygon
           points="23.547,9.26 25.247,12.604 21.725,14.395 20.025,11.051 "
           id="polygon383" />
        <polygon
           points="22.106,-6.417 21.943,-2.129 19.259,-2.87 20.258,-6.487 "
           id="polygon385" />
        <polygon
           points="35.775,-7.126 34.054,-6.663 33.315,-8.493 35.203,-9.255 "
           id="polygon387" />
        <polygon
           points="21.99,14.917 24.963,13.406 25.834,16.281 23.105,17.108 "
           id="polygon389" />
      </g>
      <g
         fill="#99948a"
         stroke="#1a1917"
         stroke-width="0.223"
         id="g445">
        <g
           fill="#1a1917"
           stroke="#1a1917"
           stroke-width="0.223"
           stroke-linejoin="round"
           id="g409">
          <polygon
             points="-0.321,34.507 -0.321,34.107 0.411,38.699 3.386,38.225 3.386,38.625 0.411,39.099 "
             id="polygon393" />
          <polygon
             points="-2.47,28.276 -1.511,34.296 -1.511,34.696 -2.47,28.676 "
             id="polygon395" />
          <polygon
             points="-1.511,34.296 2.655,33.633 2.655,34.033 -1.511,34.696 "
             id="polygon397" />
          <polygon
             points="1.702,42.547 4.133,42.914 4.133,43.314 1.702,42.947 "
             id="polygon399" />
          <polygon
             points="-3.293,25.201 -3.293,24.801 -0.793,27.311 -0.684,27.992 -0.684,28.392 -0.793,27.711 "
             id="polygon401" />
          <polygon
             points="-0.684,27.992 1.696,27.612 1.696,28.012 -0.684,28.392 "
             id="polygon403" />
          <polygon
             points="-6.225,20.635 -6.225,20.235 -2.482,23.993 -0.731,22.248 -0.731,22.648 -2.482,24.393 "
             id="polygon405" />
          <polygon
             points="-7.133,20.425 -7.133,20.025 -6.225,20.235 -4.474,18.49 -4.474,18.89 -6.225,20.635 "
             id="polygon407" />
        </g>
        <polygon
           points="0.411,38.699 -0.321,34.107 2.655,33.633 3.386,38.225 "
           id="polygon411" />
        <polygon
           points="1.696,27.612 2.655,33.633 -1.511,34.296 -2.47,28.276 "
           id="polygon413" />
        <polygon
           points="1.702,42.547 2.12,39.776 3.596,39.541 4.133,42.914 "
           id="polygon415" />
        <polygon
           points="-3.293,24.801 -0.731,22.248 1.141,24.127 1.696,27.612 -0.684,27.992 -0.793,27.311 "
           id="polygon417" />
        <polygon
           points="-2.482,23.993 -6.225,20.235 -4.474,18.49 -0.731,22.248 "
           id="polygon419" />
        <polygon
           points="-7.133,20.025 -6.346,16.612 -4.474,18.49 -6.225,20.235 "
           id="polygon421" />
        <g
           fill="#1a1917"
           stroke="#1a1917"
           stroke-width="0.223"
           stroke-linejoin="round"
           id="g433">
          <polygon
             points="-12.393,26.938 -12.393,26.538 -9.731,27.727 -8.873,24.006 -8.873,24.406 -9.731,28.127 "
             id="polygon423" />
          <polygon
             points="-11.303,23.54 -11.303,23.14 -8.806,23.716 -7.569,18.354 -7.569,18.754 -8.806,24.116 "
             id="polygon425" />
          <polygon
             points="-15.642,18.897 -15.642,18.497 -11.501,19.138 -10.987,15.823 -10.987,16.223 -11.501,19.538 "
             id="polygon427" />
          <polygon
             points="-10.065,18.178 -10.065,17.778 -7.569,18.354 -7.123,16.422 -7.123,16.822 -7.569,18.754 "
             id="polygon429" />
          <polygon
             points="-18.872,17.028 -18.872,16.628 -15.642,18.497 -15.128,15.182 -15.128,15.582 -15.642,18.897 "
             id="polygon431" />
        </g>
        <polygon
           points="-12.393,26.538 -11.039,23.506 -8.873,24.006 -9.731,27.727 "
           id="polygon435" />
        <polygon
           points="-11.303,23.14 -10.065,17.778 -7.569,18.354 -8.806,23.716 "
           id="polygon437" />
        <polygon
           points="-11.501,19.138 -15.642,18.497 -15.128,15.182 -10.987,15.823 "
           id="polygon439" />
        <polygon
           points="-7.569,18.354 -10.065,17.778 -9.791,16.009 -7.123,16.422 "
           id="polygon441" />
        <polygon
           points="-15.128,15.182 -15.642,18.497 -18.872,16.628 -17.797,14.769 "
           id="polygon443" />
      </g>
      <g
         fill="#99948a"
         stroke="#1a1917"
         stroke-width="0.223"
         id="g529">
        <g
           fill="#1a1917"
           stroke="#1a1917"
           stroke-width="0.223"
           stroke-linejoin="round"
           id="g451">
          <polygon
             points="3.241,32.226 3.664,34.887 3.664,35.287 3.241,32.626 "
             id="polygon447" />
          <polygon
             points="3.664,34.887 6.209,34.481 6.209,34.881 3.664,35.287 "
             id="polygon449" />
        </g>
        <polygon
           points="5.6,31.708 6.209,34.481 3.664,34.887 3.241,32.226 "
           id="polygon453" />
        <g
           fill="#1a1917"
           stroke="#1a1917"
           stroke-width="0.223"
           stroke-linejoin="round"
           id="g471">
          <polygon
             points="8.25,24.999 8.25,24.599 9.659,28.258 11.653,27.49 11.653,27.89 9.659,28.658 "
             id="polygon455" />
          <polygon
             points="5.194,29.425 5.194,29.025 5.603,30.888 9.83,29.96 9.83,30.36 5.603,31.288 "
             id="polygon457" />
          <polygon
             points="3.896,24.047 3.896,23.647 4.508,25.71 8.25,24.599 8.25,24.999 4.508,26.11 "
             id="polygon459" />
          <polygon
             points="2.259,26.063 2.827,29.631 2.827,30.031 2.259,26.463 "
             id="polygon461" />
          <polygon
             points="2.827,29.631 5.07,29.274 5.07,29.674 2.827,30.031 "
             id="polygon463" />
          <polygon
             points="2.827,30.031 2.827,29.631 3.115,31.435 5.433,30.926 5.433,31.326 3.115,31.835 "
             id="polygon465" />
          <polygon
             points="1.966,24.22 2.253,26.024 2.253,26.424 1.966,24.62 "
             id="polygon467" />
          <polygon
             points="2.253,26.024 4.454,25.673 4.454,26.073 2.253,26.424 "
             id="polygon469" />
        </g>
        <polygon
           points="9.659,28.258 8.25,24.599 10.244,23.832 11.653,27.49 "
           id="polygon473" />
        <polygon
           points="5.194,29.025 9.421,28.097 9.83,29.96 5.603,30.888 "
           id="polygon475" />
        <polygon
           points="8.25,24.599 4.508,25.71 3.896,23.647 7.638,22.537 "
           id="polygon477" />
        <polygon
           points="4.502,25.706 5.07,29.274 2.827,29.631 2.259,26.063 "
           id="polygon479" />
        <polygon
           points="2.827,29.631 5.07,29.274 5.433,30.926 3.115,31.435 "
           id="polygon481" />
        <polygon
           points="3.857,23.659 4.454,25.673 2.253,26.024 1.966,24.22 "
           id="polygon483" />
        <g
           fill="#1a1917"
           stroke="#1a1917"
           stroke-width="0.223"
           stroke-linejoin="round"
           id="g499">
          <polygon
             points="20.404,24.257 20.404,23.857 21.487,25.776 23.192,24.813 23.192,25.213 21.487,26.176 "
             id="polygon485" />
          <polygon
             points="19.656,21.501 19.656,21.101 20.404,23.857 22.759,23.219 22.759,23.619 20.404,24.257 "
             id="polygon487" />
          <polygon
             points="16.006,25.205 16.006,24.805 17.747,27.887 20.699,26.22 20.699,26.62 17.747,28.287 "
             id="polygon489" />
          <polygon
             points="15.775,20.523 15.775,20.123 16.835,23.696 18.868,23.093 18.868,23.493 16.835,24.096 "
             id="polygon491" />
          <polygon
             points="19.407,19.446 19.407,19.046 19.862,20.581 21.895,20.03 21.895,20.43 19.862,20.981 "
             id="polygon493" />
          <polygon
             points="12.283,21.559 12.283,21.159 12.895,23.222 16.387,22.186 16.387,22.586 12.895,23.622 "
             id="polygon495" />
          <polygon
             points="10.298,22.148 10.298,21.748 11.117,23.872 12.852,23.204 12.852,23.604 11.117,24.272 "
             id="polygon497" />
        </g>
        <polygon
           points="21.487,25.776 20.404,23.857 22.759,23.219 23.192,24.813 "
           id="polygon501" />
        <polygon
           points="20.404,23.857 19.656,21.101 22.012,20.462 22.759,23.219 "
           id="polygon503" />
        <polygon
           points="16.006,24.805 18.958,23.138 20.699,26.22 17.747,27.887 "
           id="polygon505" />
        <polygon
           points="18.868,23.093 16.835,23.696 15.775,20.123 17.808,19.52 "
           id="polygon507" />
        <polygon
           points="19.407,19.046 21.462,18.436 21.895,20.03 19.862,20.581 "
           id="polygon509" />
        <polygon
           points="16.387,22.186 12.895,23.222 12.283,21.159 15.775,20.123 "
           id="polygon511" />
        <polygon
           points="11.117,23.872 10.298,21.748 12.249,21.169 12.852,23.204 "
           id="polygon513" />
        <g
           fill="#1a1917"
           stroke="#1a1917"
           stroke-width="0.223"
           stroke-linejoin="round"
           id="g521">
          <polygon
             points="18.833,35.866 18.833,35.466 19.691,38.15 23.918,36.798 23.918,37.198 19.691,38.55 "
             id="polygon515" />
          <polygon
             points="21.788,29.824 21.788,29.424 23.06,34.114 25.532,33.444 25.532,33.844 23.06,34.514 "
             id="polygon517" />
          <polygon
             points="21.021,27.357 21.021,26.957 22.051,28.781 24.116,28.221 24.116,28.621 22.051,29.181 "
             id="polygon519" />
        </g>
        <polygon
           points="18.833,35.466 23.06,34.114 23.918,36.798 19.691,38.15 "
           id="polygon523" />
        <polygon
           points="23.06,34.114 21.788,29.424 24.26,28.754 25.532,33.444 "
           id="polygon525" />
        <polygon
           points="24.116,28.221 22.051,28.781 21.021,26.957 23.408,25.61 "
           id="polygon527" />
      </g>
    </g>
  </g>
</svg>
